<svg width="240" height="57" viewBox="0 0 240 57" fill="none" xmlns="http://www.w3.org/2000/svg">
<g clip-path="url(#clip0_6673_415)">
<path d="M45.3988 14.1591C46.8704 14.1591 47.3675 13.2443 47.6261 12.8267H47.7653V14H48.8988V3.81818H47.7255V7.5767H47.6261C47.3675 7.17898 46.9102 6.2642 45.4187 6.2642C43.4897 6.2642 42.1573 7.79545 42.1573 10.2017C42.1573 12.6278 43.4897 14.1591 45.3988 14.1591ZM45.5579 13.1051C44.0863 13.1051 43.3306 11.8125 43.3306 10.1818C43.3306 8.57102 44.0664 7.31818 45.5579 7.31818C46.9897 7.31818 47.7454 8.47159 47.7454 10.1818C47.7454 11.9119 46.9698 13.1051 45.5579 13.1051ZM56.0231 10.8778C56.0231 12.3097 54.9293 12.9659 54.0543 12.9659C53.0799 12.9659 52.3839 12.25 52.3839 11.1364V6.36364H51.2106V11.2159C51.2106 13.1648 52.2447 14.0994 53.6765 14.0994C54.8299 14.0994 55.5856 13.483 55.9435 12.7074H56.0231V14H57.1964V6.36364H56.0231V10.8778ZM60.5186 9.40625C60.5186 8.07386 61.3439 7.31818 62.4675 7.31818C63.5563 7.31818 64.2175 8.02912 64.2175 9.22727V14H65.3908V9.14773C65.3908 7.19886 64.3517 6.2642 62.8056 6.2642C61.6522 6.2642 60.9363 6.78125 60.5783 7.55682H60.4789V6.36364H59.3453V14H60.5186V9.40625ZM70.4183 14.1591C71.8899 14.1591 72.3871 13.2443 72.6456 12.8267H72.7848V14H73.9183V3.81818H72.745V7.5767H72.6456C72.3871 7.17898 71.9297 6.2642 70.4382 6.2642C68.5092 6.2642 67.1768 7.79545 67.1768 10.2017C67.1768 12.6278 68.5092 14.1591 70.4183 14.1591ZM70.5774 13.1051C69.1058 13.1051 68.3501 11.8125 68.3501 10.1818C68.3501 8.57102 69.0859 7.31818 70.5774 7.31818C72.0092 7.31818 72.7649 8.47159 72.7649 10.1818C72.7649 11.9119 71.9893 13.1051 70.5774 13.1051ZM79.4318 14.1591C80.983 14.1591 82.1165 13.3835 82.4744 12.2301L81.3409 11.9119C81.0426 12.7074 80.3516 13.1051 79.4318 13.1051C78.0547 13.1051 77.1051 12.2152 77.0504 10.5795H82.5938V10.0824C82.5938 7.23864 80.9034 6.2642 79.3125 6.2642C77.2443 6.2642 75.8722 7.89489 75.8722 10.2415C75.8722 12.5881 77.2244 14.1591 79.4318 14.1591ZM77.0504 9.56534C77.13 8.37713 77.9702 7.31818 79.3125 7.31818C80.5852 7.31818 81.4006 8.27273 81.4006 9.56534H77.0504ZM84.3786 14H85.5518V9.16761C85.5518 8.13352 86.3672 7.37784 87.4808 7.37784C87.794 7.37784 88.1172 7.4375 88.1967 7.45739V6.2642C88.0625 6.25426 87.7543 6.24432 87.5803 6.24432C86.6655 6.24432 85.87 6.76136 85.5916 7.51705H85.5121V6.36364H84.3786V14ZM89.5875 14H90.7608V9.22727C90.7608 8.10866 91.5762 7.31818 92.4909 7.31818C93.3809 7.31818 94.0023 7.89986 94.0023 8.76989V14H95.1955V9.02841C95.1955 8.04403 95.812 7.31818 96.8858 7.31818C97.7211 7.31818 98.437 7.76065 98.437 8.8892V14H99.6103V8.8892C99.6103 7.09446 98.6458 6.2642 97.2836 6.2642C96.1898 6.2642 95.3894 6.76633 94.9966 7.55682H94.9171C94.5392 6.74148 93.873 6.2642 92.8688 6.2642C91.8745 6.2642 91.1387 6.74148 90.8205 7.55682H90.7211V6.36364H89.5875V14ZM101.756 14H102.929V6.36364H101.756V14ZM102.352 5.09091C102.809 5.09091 103.187 4.73295 103.187 4.29545C103.187 3.85795 102.809 3.5 102.352 3.5C101.895 3.5 101.517 3.85795 101.517 4.29545C101.517 4.73295 101.895 5.09091 102.352 5.09091ZM108.478 6.36364H106.768V5.58807C106.768 4.83239 107.086 4.43466 107.862 4.43466C108.2 4.43466 108.399 4.5142 108.518 4.55398L108.856 3.53977C108.677 3.46023 108.319 3.34091 107.743 3.34091C106.649 3.34091 105.595 3.99716 105.595 5.30966V6.36364H104.362V7.35795H105.595V14H106.768V7.35795H108.478V6.36364ZM113.523 6.36364H111.813V5.58807C111.813 4.83239 112.131 4.43466 112.907 4.43466C113.245 4.43466 113.444 4.5142 113.563 4.55398L113.901 3.53977C113.722 3.46023 113.364 3.34091 112.787 3.34091C111.694 3.34091 110.64 3.99716 110.64 5.30966V6.36364H109.407V7.35795H110.64V14H111.813V7.35795H113.523V6.36364ZM116.341 3.81818H115.168V14H116.341V3.81818ZM118.49 14H119.663V6.36364H118.49V14ZM119.086 5.09091C119.544 5.09091 119.922 4.73295 119.922 4.29545C119.922 3.85795 119.544 3.5 119.086 3.5C118.629 3.5 118.251 3.85795 118.251 4.29545C118.251 4.73295 118.629 5.09091 119.086 5.09091ZM122.985 9.40625C122.985 8.07386 123.811 7.31818 124.934 7.31818C126.023 7.31818 126.684 8.02912 126.684 9.22727V14H127.858V9.14773C127.858 7.19886 126.819 6.2642 125.272 6.2642C124.119 6.2642 123.403 6.78125 123.045 7.55682H122.946V6.36364H121.812V14H122.985V9.40625ZM130.002 16.8636H131.175V12.8267H131.274C131.533 13.2443 132.03 14.1591 133.502 14.1591C135.411 14.1591 136.743 12.6278 136.743 10.2017C136.743 7.79545 135.411 6.2642 133.482 6.2642C131.99 6.2642 131.533 7.17898 131.274 7.5767H131.135V6.36364H130.002V16.8636ZM131.155 10.1818C131.155 8.47159 131.911 7.31818 133.343 7.31818C134.834 7.31818 135.57 8.57102 135.57 10.1818C135.57 11.8125 134.814 13.1051 133.343 13.1051C131.931 13.1051 131.155 11.9119 131.155 10.1818ZM140.78 14.179C142.112 14.179 142.808 13.4631 143.047 12.9659H143.107V14H144.28V8.96875C144.28 6.54261 142.431 6.2642 141.456 6.2642C140.303 6.2642 138.99 6.66193 138.394 8.05398L139.507 8.4517C139.766 7.89489 140.377 7.2983 141.496 7.2983C142.575 7.2983 143.107 7.87003 143.107 8.84943V8.8892C143.107 9.45597 142.53 9.40625 141.138 9.58523C139.721 9.76918 138.175 10.0824 138.175 11.8324C138.175 13.3239 139.328 14.179 140.78 14.179ZM140.959 13.125C140.024 13.125 139.348 12.7074 139.348 11.892C139.348 10.9972 140.164 10.7188 141.078 10.5994C141.575 10.5398 142.908 10.4006 143.107 10.1619V11.2358C143.107 12.1903 142.351 13.125 140.959 13.125ZM146.422 16.8636H147.595V12.8267H147.694C147.953 13.2443 148.45 14.1591 149.922 14.1591C151.831 14.1591 153.163 12.6278 153.163 10.2017C153.163 7.79545 151.831 6.2642 149.902 6.2642C148.41 6.2642 147.953 7.17898 147.694 7.5767H147.555V6.36364H146.422V16.8636ZM147.575 10.1818C147.575 8.47159 148.331 7.31818 149.762 7.31818C151.254 7.31818 151.99 8.57102 151.99 10.1818C151.99 11.8125 151.234 13.1051 149.762 13.1051C148.35 13.1051 147.575 11.9119 147.575 10.1818ZM158.154 14.1591C159.706 14.1591 160.839 13.3835 161.197 12.2301L160.064 11.9119C159.765 12.7074 159.074 13.1051 158.154 13.1051C156.777 13.1051 155.828 12.2152 155.773 10.5795H161.316V10.0824C161.316 7.23864 159.626 6.2642 158.035 6.2642C155.967 6.2642 154.595 7.89489 154.595 10.2415C154.595 12.5881 155.947 14.1591 158.154 14.1591ZM155.773 9.56534C155.853 8.37713 156.693 7.31818 158.035 7.31818C159.308 7.31818 160.123 8.27273 160.123 9.56534H155.773ZM163.101 14H164.275V9.16761C164.275 8.13352 165.09 7.37784 166.203 7.37784C166.517 7.37784 166.84 7.4375 166.919 7.45739V6.2642C166.785 6.25426 166.477 6.24432 166.303 6.24432C165.388 6.24432 164.593 6.76136 164.314 7.51705H164.235V6.36364H163.101V14ZM168.29 14.0795C168.782 14.0795 169.185 13.6768 169.185 13.1847C169.185 12.6925 168.782 12.2898 168.29 12.2898C167.798 12.2898 167.395 12.6925 167.395 13.1847C167.395 13.6768 167.798 14.0795 168.29 14.0795ZM174.393 14.1591C176.083 14.1591 177.197 13.125 177.396 11.7727H176.222C176.004 12.608 175.308 13.1051 174.393 13.1051C173.001 13.1051 172.106 11.9517 172.106 10.1818C172.106 8.4517 173.021 7.31818 174.393 7.31818C175.427 7.31818 176.044 7.95455 176.222 8.65057H177.396C177.197 7.21875 175.984 6.2642 174.373 6.2642C172.305 6.2642 170.933 7.89489 170.933 10.2216C170.933 12.5085 172.245 14.1591 174.393 14.1591ZM182.213 14.1591C184.281 14.1591 185.673 12.5881 185.673 10.2216C185.673 7.83523 184.281 6.2642 182.213 6.2642C180.145 6.2642 178.753 7.83523 178.753 10.2216C178.753 12.5881 180.145 14.1591 182.213 14.1591ZM182.213 13.1051C180.642 13.1051 179.926 11.7528 179.926 10.2216C179.926 8.69034 180.642 7.31818 182.213 7.31818C183.784 7.31818 184.5 8.69034 184.5 10.2216C184.5 11.7528 183.784 13.1051 182.213 13.1051ZM187.464 14H188.638V9.22727C188.638 8.10866 189.453 7.31818 190.368 7.31818C191.258 7.31818 191.879 7.89986 191.879 8.76989V14H193.072V9.02841C193.072 8.04403 193.689 7.31818 194.763 7.31818C195.598 7.31818 196.314 7.76065 196.314 8.8892V14H197.487V8.8892C197.487 7.09446 196.523 6.2642 195.161 6.2642C194.067 6.2642 193.266 6.76633 192.874 7.55682H192.794C192.416 6.74148 191.75 6.2642 190.746 6.2642C189.751 6.2642 189.016 6.74148 188.697 7.55682H188.598V6.36364H187.464V14Z" fill="#262626"/>
<path d="M11.1075 27.7273H10.2268L8.40865 28.9347V29.8295L10.1842 28.6506H10.2268V35H11.1075V27.7273ZM13.4264 35H14.3497L17.5883 28.5511V27.7273H12.9292V28.5085H16.6792V28.5653L13.4264 35ZM18.912 35H23.5001V34.2188H20.1194V34.1619L21.7529 32.4148C23.0029 31.076 23.3722 30.451 23.3722 29.6449C23.3722 28.5227 22.4632 27.6278 21.1847 27.6278C19.9099 27.6278 18.9404 28.4943 18.9404 29.7727H19.7785C19.7785 28.9453 20.3147 28.3949 21.1563 28.3949C21.9447 28.3949 22.5484 28.8778 22.5484 29.6449C22.5484 30.3161 22.1542 30.8132 21.3126 31.733L18.912 34.3608V35ZM27.2394 35.0994C28.6244 35.0994 29.64 34.0767 29.64 32.6847C29.64 31.2749 28.6599 30.2415 27.3247 30.2415C26.8346 30.2415 26.3588 30.4155 26.0605 30.6534H26.0178L26.2735 28.5085H29.3133V27.7273H25.5349L25.0945 31.3068L25.9184 31.4062C26.2203 31.1896 26.7352 31.0334 27.1826 31.0369C28.1095 31.044 28.7877 31.7472 28.7877 32.6989C28.7877 33.6328 28.1343 34.3182 27.2394 34.3182C26.4937 34.3182 25.9007 33.8388 25.8332 33.1818H24.9809C25.0342 34.2898 25.9894 35.0994 27.2394 35.0994ZM37.9683 29.5455H38.8206C38.7815 28.4482 37.7694 27.6278 36.3632 27.6278C34.9711 27.6278 33.8774 28.4375 33.8774 29.6591C33.8774 30.6392 34.5876 31.2216 35.724 31.5483L36.6189 31.804C37.3859 32.017 38.0677 32.2869 38.0677 33.0114C38.0677 33.8068 37.3007 34.3324 36.2922 34.3324C35.4257 34.3324 34.6586 33.9489 34.5876 33.125H33.6785C33.7638 34.3182 34.7297 35.1278 36.2922 35.1278C37.9683 35.1278 38.92 34.2045 38.92 33.0256C38.92 31.6619 37.6274 31.2216 36.8746 31.0227L36.1359 30.8239C35.5961 30.6818 34.7297 30.3977 34.7297 29.6165C34.7297 28.9205 35.3689 28.4091 36.3348 28.4091C37.2155 28.4091 37.8831 28.8281 37.9683 29.5455ZM41.0924 27.7273H40.2544V35H41.0924V27.7273ZM44.8433 35.1136C46.3206 35.1136 47.3149 33.9915 47.3149 32.3011C47.3149 30.5966 46.3206 29.4744 44.8433 29.4744C43.366 29.4744 42.3717 30.5966 42.3717 32.3011C42.3717 33.9915 43.366 35.1136 44.8433 35.1136ZM44.8433 34.3608C43.7211 34.3608 43.2098 33.3949 43.2098 32.3011C43.2098 31.2074 43.7211 30.2273 44.8433 30.2273C45.9655 30.2273 46.4768 31.2074 46.4768 32.3011C46.4768 33.3949 45.9655 34.3608 44.8433 34.3608ZM52.0317 32.7699C52.0317 33.7926 51.2504 34.2614 50.6254 34.2614C49.9294 34.2614 49.4323 33.75 49.4323 32.9545V29.5455H48.5942V33.0114C48.5942 34.4034 49.3328 35.071 50.3556 35.071C51.1794 35.071 51.7192 34.6307 51.9749 34.0767H52.0317V35H52.8698V29.5455H52.0317V32.7699ZM56.6064 37.1591C57.9133 37.1591 58.9644 36.5625 58.9644 35.1562V29.5455H58.1547V30.4119H58.0695C57.8849 30.1278 57.5439 29.4744 56.4786 29.4744C55.1008 29.4744 54.1491 30.5682 54.1491 32.2443C54.1491 33.9489 55.1434 34.9148 56.4644 34.9148C57.5297 34.9148 57.8706 34.2898 58.0553 33.9915H58.1263V35.0994C58.1263 36.0085 57.4871 36.4205 56.6064 36.4205C55.6157 36.4205 55.2677 35.8984 55.0439 35.5966L54.3763 36.0653C54.7172 36.6371 55.3884 37.1591 56.6064 37.1591ZM56.578 34.1619C55.5269 34.1619 54.9871 33.3665 54.9871 32.2301C54.9871 31.1222 55.5127 30.2273 56.578 30.2273C57.6008 30.2273 58.1405 31.0511 58.1405 32.2301C58.1405 33.4375 57.5866 34.1619 56.578 34.1619ZM61.3366 31.7188C61.3366 30.767 61.9438 30.2273 62.7712 30.2273C63.5596 30.2273 64.0354 30.7244 64.0354 31.5909V35H64.8735V31.5341C64.8735 30.1314 64.1278 29.4744 63.0127 29.4744C62.1533 29.4744 61.6633 29.8331 61.4076 30.3977H61.3366V27.7273H60.4985V35H61.3366V31.7188ZM69.6311 35L70.3627 32.9403H73.303L74.0345 35H74.9578L72.2874 27.7273H71.3783L68.7078 35H69.6311ZM70.6396 32.1591L71.8044 28.8778H71.8612L73.026 32.1591H70.6396ZM79.7536 29.5455H78.8445L77.3389 33.892H77.282L75.7764 29.5455H74.8673L76.8843 35H77.7366L79.7536 29.5455ZM82.9514 35.1136C84.0594 35.1136 84.8691 34.5597 85.1247 33.7358L84.3151 33.5085C84.102 34.0767 83.6084 34.3608 82.9514 34.3608C81.9678 34.3608 81.2895 33.7251 81.2504 32.5568H85.21V32.2017C85.21 30.1705 84.0026 29.4744 82.8662 29.4744C81.3889 29.4744 80.4088 30.6392 80.4088 32.3153C80.4088 33.9915 81.3747 35.1136 82.9514 35.1136ZM81.2504 31.8324C81.3073 30.9837 81.9074 30.2273 82.8662 30.2273C83.7753 30.2273 84.3577 30.9091 84.3577 31.8324H81.2504ZM87.3229 31.7188C87.3229 30.767 87.9124 30.2273 88.7149 30.2273C89.4926 30.2273 89.9649 30.7351 89.9649 31.5909V35H90.803V31.5341C90.803 30.142 90.0608 29.4744 88.9564 29.4744C88.1325 29.4744 87.6212 29.8438 87.3655 30.3977H87.2945V29.5455H86.4848V35H87.3229V31.7188ZM95.7719 32.7699C95.7719 33.7926 94.9907 34.2614 94.3657 34.2614C93.6697 34.2614 93.1725 33.75 93.1725 32.9545V29.5455H92.3344V33.0114C92.3344 34.4034 93.0731 35.071 94.0958 35.071C94.9197 35.071 95.4594 34.6307 95.7151 34.0767H95.7719V35H96.61V29.5455H95.7719V32.7699ZM100.432 35.1136C101.54 35.1136 102.35 34.5597 102.605 33.7358L101.796 33.5085C101.582 34.0767 101.089 34.3608 100.432 34.3608C99.4482 34.3608 98.77 33.7251 98.7309 32.5568H102.69V32.2017C102.69 30.1705 101.483 29.4744 100.347 29.4744C98.8694 29.4744 97.8893 30.6392 97.8893 32.3153C97.8893 33.9915 98.8552 35.1136 100.432 35.1136ZM98.7309 31.8324C98.7877 30.9837 99.3879 30.2273 100.347 30.2273C101.256 30.2273 101.838 30.9091 101.838 31.8324H98.7309ZM109.491 35H110.201L110.531 32.983H111.607L111.721 32.2727H110.649L110.947 30.4545H112.033L112.147 29.7443H111.064L111.394 27.7273H110.684L110.354 29.7443H108.507L108.837 27.7273H108.127L107.797 29.7443H106.721L106.607 30.4545H107.68L107.381 32.2727H106.295L106.181 32.983H107.264L106.934 35H107.644L107.975 32.983H109.821L109.491 35ZM108.092 32.2727L108.39 30.4545H110.237L109.938 32.2727H108.092ZM113.072 35H117.66V34.2188H114.28V34.1619L115.913 32.4148C117.163 31.076 117.532 30.451 117.532 29.6449C117.532 28.5227 116.623 27.6278 115.345 27.6278C114.07 27.6278 113.101 28.4943 113.101 29.7727H113.939C113.939 28.9453 114.475 28.3949 115.316 28.3949C116.105 28.3949 116.709 28.8778 116.709 29.6449C116.709 30.3161 116.314 30.8132 115.473 31.733L113.072 34.3608V35ZM121.499 35.0994C123.104 35.0994 124.027 33.7393 124.027 31.3636C124.027 29.0057 123.09 27.6278 121.499 27.6278C119.908 27.6278 118.971 29.0057 118.971 31.3636C118.971 33.7393 119.894 35.0994 121.499 35.0994ZM121.499 34.3182C120.441 34.3182 119.823 33.2564 119.823 31.3636C119.823 29.4744 120.448 28.3949 121.499 28.3949C122.55 28.3949 123.175 29.4744 123.175 31.3636C123.175 33.2564 122.557 34.3182 121.499 34.3182ZM127.749 35.0994C129.354 35.0994 130.277 33.7393 130.277 31.3636C130.277 29.0057 129.34 27.6278 127.749 27.6278C126.158 27.6278 125.221 29.0057 125.221 31.3636C125.221 33.7393 126.144 35.0994 127.749 35.0994ZM127.749 34.3182C126.691 34.3182 126.073 33.2564 126.073 31.3636C126.073 29.4744 126.698 28.3949 127.749 28.3949C128.8 28.3949 129.425 29.4744 129.425 31.3636C129.425 33.2564 128.807 34.3182 127.749 34.3182ZM132.891 34.0057H131.982L131.939 34.4034C131.836 35.3658 131.634 36.3246 131.542 36.7756H132.181C132.351 36.2926 132.714 35.1989 132.834 34.3892L132.891 34.0057ZM141.347 29.5455H142.199C142.16 28.4482 141.148 27.6278 139.742 27.6278C138.35 27.6278 137.256 28.4375 137.256 29.6591C137.256 30.6392 137.967 31.2216 139.103 31.5483L139.998 31.804C140.765 32.017 141.447 32.2869 141.447 33.0114C141.447 33.8068 140.68 34.3324 139.671 34.3324C138.805 34.3324 138.038 33.9489 137.967 33.125H137.057C137.143 34.3182 138.109 35.1278 139.671 35.1278C141.347 35.1278 142.299 34.2045 142.299 33.0256C142.299 31.6619 141.006 31.2216 140.253 31.0227L139.515 30.8239C138.975 30.6818 138.109 30.3977 138.109 29.6165C138.109 28.9205 138.748 28.4091 139.714 28.4091C140.594 28.4091 141.262 28.8281 141.347 29.5455ZM145.849 35.1136C147.057 35.1136 147.852 34.375 147.994 33.4091H147.156C147 34.0057 146.503 34.3608 145.849 34.3608C144.855 34.3608 144.216 33.5369 144.216 32.2727C144.216 31.0369 144.869 30.2273 145.849 30.2273C146.588 30.2273 147.028 30.6818 147.156 31.179H147.994C147.852 30.1562 146.986 29.4744 145.835 29.4744C144.358 29.4744 143.378 30.6392 143.378 32.3011C143.378 33.9347 144.315 35.1136 145.849 35.1136ZM149.219 35H150.057V31.5483C150.057 30.8097 150.64 30.2699 151.435 30.2699C151.659 30.2699 151.89 30.3125 151.946 30.3267V29.4744C151.851 29.4673 151.63 29.4602 151.506 29.4602C150.853 29.4602 150.285 29.8295 150.086 30.3693H150.029V29.5455H149.219V35ZM154.545 35.1278C155.497 35.1278 155.994 34.6165 156.164 34.2614H156.207V35H157.045V31.4062C157.045 29.6733 155.724 29.4744 155.028 29.4744C154.204 29.4744 153.267 29.7585 152.84 30.7528L153.636 31.0369C153.821 30.6392 154.257 30.2131 155.056 30.2131C155.827 30.2131 156.207 30.6214 156.207 31.321V31.3494C156.207 31.7543 155.795 31.7188 154.801 31.8466C153.789 31.978 152.684 32.2017 152.684 33.4517C152.684 34.517 153.508 35.1278 154.545 35.1278ZM154.673 34.375C154.005 34.375 153.522 34.0767 153.522 33.4943C153.522 32.8551 154.105 32.6562 154.758 32.571C155.113 32.5284 156.065 32.429 156.207 32.2585V33.0256C156.207 33.7074 155.667 34.375 154.673 34.375ZM159.413 31.7188C159.413 30.767 160.002 30.2273 160.805 30.2273C161.582 30.2273 162.055 30.7351 162.055 31.5909V35H162.893V31.5341C162.893 30.142 162.151 29.4744 161.046 29.4744C160.222 29.4744 159.711 29.8438 159.455 30.3977H159.384V29.5455H158.575V35H159.413V31.7188ZM166.796 29.5455H165.632V28.2386H164.794V29.5455H163.97V30.2557H164.794V33.6648C164.794 34.6165 165.561 35.071 166.271 35.071C166.583 35.071 166.782 35.0142 166.896 34.9716L166.725 34.2188C166.654 34.233 166.541 34.2614 166.356 34.2614C165.987 34.2614 165.632 34.1477 165.632 33.4375V30.2557H166.796V29.5455ZM170.214 35.1136C171.692 35.1136 172.686 33.9915 172.686 32.3011C172.686 30.5966 171.692 29.4744 170.214 29.4744C168.737 29.4744 167.743 30.5966 167.743 32.3011C167.743 33.9915 168.737 35.1136 170.214 35.1136ZM170.214 34.3608C169.092 34.3608 168.581 33.3949 168.581 32.3011C168.581 31.2074 169.092 30.2273 170.214 30.2273C171.337 30.2273 171.848 31.2074 171.848 32.3011C171.848 33.3949 171.337 34.3608 170.214 34.3608ZM174.803 31.7188C174.803 30.767 175.393 30.2273 176.195 30.2273C176.973 30.2273 177.445 30.7351 177.445 31.5909V35H178.283V31.5341C178.283 30.142 177.541 29.4744 176.437 29.4744C175.613 29.4744 175.102 29.8438 174.846 30.3977H174.775V29.5455H173.965V35H174.803V31.7188ZM181.065 34.0057H180.156L180.113 34.4034C180.01 35.3658 179.808 36.3246 179.715 36.7756H180.355C180.525 36.2926 180.887 35.1989 181.008 34.3892L181.065 34.0057ZM185.544 35H186.424V32.3438H188.015C189.709 32.3438 190.473 31.3139 190.473 30.0284C190.473 28.7429 189.709 27.7273 188.001 27.7273H185.544V35ZM186.424 31.5625V28.5085H187.973C189.155 28.5085 189.606 29.1548 189.606 30.0284C189.606 30.902 189.155 31.5625 187.987 31.5625H186.424ZM191.448 35L192.179 32.9403H195.119L195.851 35H196.774L194.104 27.7273H193.195L190.524 35H191.448ZM192.456 32.1591L193.621 28.8778H193.678L194.842 32.1591H192.456ZM199.043 34.0057H198.134L198.092 34.4034C197.989 35.3658 197.786 36.3246 197.694 36.7756H198.333C198.504 36.2926 198.866 35.1989 198.987 34.3892L199.043 34.0057ZM205.951 27.7273H205.071L203.252 28.9347V29.8295L205.028 28.6506H205.071V35H205.951V27.7273ZM210.372 35.0994C211.825 35.0994 212.837 34.2507 212.844 33.0682C212.837 32.1484 212.223 31.3672 211.438 31.2216V31.179C212.12 31.0014 212.567 30.3338 212.574 29.5597C212.567 28.4517 211.637 27.6278 210.372 27.6278C209.094 27.6278 208.164 28.4517 208.171 29.5597C208.164 30.3338 208.611 31.0014 209.307 31.179V31.2216C208.508 31.3672 207.894 32.1484 207.901 33.0682C207.894 34.2507 208.906 35.0994 210.372 35.0994ZM210.372 34.3182C209.375 34.3182 208.76 33.8068 208.767 33.0256C208.76 32.2053 209.438 31.6193 210.372 31.6193C211.292 31.6193 211.97 32.2053 211.978 33.0256C211.97 33.8068 211.356 34.3182 210.372 34.3182ZM210.372 30.8665C209.577 30.8665 209.016 30.3693 209.023 29.6165C209.016 28.8778 209.556 28.3949 210.372 28.3949C211.175 28.3949 211.715 28.8778 211.722 29.6165C211.715 30.3693 211.154 30.8665 210.372 30.8665ZM216.478 35.0994C217.863 35.0994 218.878 34.0767 218.878 32.6847C218.878 31.2749 217.898 30.2415 216.563 30.2415C216.073 30.2415 215.597 30.4155 215.299 30.6534H215.256L215.512 28.5085H218.552V27.7273H214.773L214.333 31.3068L215.157 31.4062C215.459 31.1896 215.973 31.0334 216.421 31.0369C217.348 31.044 218.026 31.7472 218.026 32.6989C218.026 33.6328 217.373 34.3182 216.478 34.3182C215.732 34.3182 215.139 33.8388 215.071 33.1818H214.219C214.272 34.2898 215.228 35.0994 216.478 35.0994ZM220.119 33.5085H223.542V35H224.38V33.5085H225.374V32.7273H224.38V27.7273H223.315L220.119 32.7841V33.5085ZM223.542 32.7273H221.07V32.6705L223.485 28.8494H223.542V32.7273ZM229.077 35.0994C230.682 35.0994 231.606 33.7393 231.606 31.3636C231.606 29.0057 230.668 27.6278 229.077 27.6278C227.486 27.6278 226.549 29.0057 226.549 31.3636C226.549 33.7393 227.472 35.0994 229.077 35.0994ZM229.077 34.3182C228.019 34.3182 227.401 33.2564 227.401 31.3636C227.401 29.4744 228.026 28.3949 229.077 28.3949C230.128 28.3949 230.753 29.4744 230.753 31.3636C230.753 33.2564 230.135 34.3182 229.077 34.3182ZM64.6471 51.1136C66.7245 51.1136 68.4042 49.4339 68.3971 47.3636C68.39 45.2933 66.7245 43.6136 64.6471 43.6136C62.5839 43.6136 60.9042 45.2933 60.8971 47.3636C60.89 49.4339 62.5839 51.1136 64.6471 51.1136ZM64.6471 50.2898C63.0313 50.2898 61.7139 48.9723 61.721 47.3672C61.7281 45.7514 63.0384 44.4375 64.6471 44.4375C66.2629 44.4375 67.5661 45.7443 67.5732 47.3672C67.5803 48.9794 66.27 50.2898 64.6471 50.2898ZM62.5732 47.3636C62.5732 48.5284 63.5178 49.473 64.6826 49.473C65.6911 49.473 66.4653 48.7628 66.6002 47.8182H65.7409C65.6414 48.3047 65.2295 48.6491 64.6826 48.6491C63.9724 48.6491 63.3971 48.0739 63.3971 47.3636C63.3971 46.6534 63.9724 46.0781 64.6826 46.0781C65.2295 46.0781 65.716 46.4226 65.8119 46.9091H66.6713C66.5363 45.9645 65.6911 45.2543 64.6826 45.2543C63.5178 45.2543 62.5732 46.1989 62.5732 47.3636ZM72.789 51H77.377V50.2188H73.9964V50.1619L75.6299 48.4148C76.8799 47.076 77.2492 46.451 77.2492 45.6449C77.2492 44.5227 76.3401 43.6278 75.0617 43.6278C73.7868 43.6278 72.8174 44.4943 72.8174 45.7727H73.6555C73.6555 44.9453 74.1917 44.3949 75.0333 44.3949C75.8216 44.3949 76.4253 44.8778 76.4253 45.6449C76.4253 46.3161 76.0312 46.8132 75.1895 47.733L72.789 50.3608V51ZM81.2158 51.0994C82.8209 51.0994 83.7442 49.7393 83.7442 47.3636C83.7442 45.0057 82.8067 43.6278 81.2158 43.6278C79.6249 43.6278 78.6874 45.0057 78.6874 47.3636C78.6874 49.7393 79.6107 51.0994 81.2158 51.0994ZM81.2158 50.3182C80.1576 50.3182 79.5397 49.2564 79.5397 47.3636C79.5397 45.4744 80.1647 44.3949 81.2158 44.3949C82.267 44.3949 82.892 45.4744 82.892 47.3636C82.892 49.2564 82.2741 50.3182 81.2158 50.3182ZM85.0937 51H89.6817V50.2188H86.301V50.1619L87.9346 48.4148C89.1846 47.076 89.5539 46.451 89.5539 45.6449C89.5539 44.5227 88.6448 43.6278 87.3664 43.6278C86.0915 43.6278 85.1221 44.4943 85.1221 45.7727H85.9601C85.9601 44.9453 86.4964 44.3949 87.338 44.3949C88.1263 44.3949 88.73 44.8778 88.73 45.6449C88.73 46.3161 88.3358 46.8132 87.4942 47.733L85.0937 50.3608V51ZM93.5205 51.0994C95.1256 51.0994 96.0489 49.7393 96.0489 47.3636C96.0489 45.0057 95.1114 43.6278 93.5205 43.6278C91.9296 43.6278 90.9921 45.0057 90.9921 47.3636C90.9921 49.7393 91.9154 51.0994 93.5205 51.0994ZM93.5205 50.3182C92.4623 50.3182 91.8444 49.2564 91.8444 47.3636C91.8444 45.4744 92.4694 44.3949 93.5205 44.3949C94.5716 44.3949 95.1966 45.4744 95.1966 47.3636C95.1966 49.2564 94.5787 50.3182 93.5205 50.3182ZM100.339 51H102.967C104.685 51 105.396 50.1619 105.396 49.0682C105.396 47.9176 104.6 47.2926 103.932 47.25V47.179C104.557 47.0085 105.111 46.5966 105.111 45.6591C105.111 44.5938 104.401 43.7273 102.881 43.7273H100.339V51ZM101.219 50.2188V47.6903H103.009C103.961 47.6903 104.557 48.3295 104.557 49.0682C104.557 49.7074 104.117 50.2188 102.967 50.2188H101.219ZM101.219 46.9233V44.5085H102.881C103.847 44.5085 104.273 45.0199 104.273 45.6591C104.273 46.4261 103.648 46.9233 102.853 46.9233H101.219ZM108.945 51.1136C110.422 51.1136 111.416 49.9915 111.416 48.3011C111.416 46.5966 110.422 45.4744 108.945 45.4744C107.468 45.4744 106.473 46.5966 106.473 48.3011C106.473 49.9915 107.468 51.1136 108.945 51.1136ZM108.945 50.3608C107.823 50.3608 107.311 49.3949 107.311 48.3011C107.311 47.2074 107.823 46.2273 108.945 46.2273C110.067 46.2273 110.578 47.2074 110.578 48.3011C110.578 49.3949 110.067 50.3608 108.945 50.3608ZM113.534 47.7188C113.534 46.767 114.123 46.2273 114.926 46.2273C115.704 46.2273 116.176 46.7351 116.176 47.5909V51H117.014V47.5341C117.014 46.142 116.272 45.4744 115.167 45.4744C114.343 45.4744 113.832 45.8438 113.576 46.3977H113.505V45.5455H112.696V51H113.534V47.7188ZM119.383 47.7188C119.383 46.767 119.973 46.2273 120.775 46.2273C121.553 46.2273 122.025 46.7351 122.025 47.5909V51H122.864V47.5341C122.864 46.142 122.121 45.4744 121.017 45.4744C120.193 45.4744 119.682 45.8438 119.426 46.3977H119.355V45.5455H118.545V51H119.383V47.7188ZM124.395 51H125.233V45.5455H124.395V51ZM124.821 44.6364C125.148 44.6364 125.418 44.3807 125.418 44.0682C125.418 43.7557 125.148 43.5 124.821 43.5C124.494 43.5 124.225 43.7557 124.225 44.0682C124.225 44.3807 124.494 44.6364 124.821 44.6364ZM129.055 51.1136C130.163 51.1136 130.973 50.5597 131.228 49.7358L130.419 49.5085C130.206 50.0767 129.712 50.3608 129.055 50.3608C128.071 50.3608 127.393 49.7251 127.354 48.5568H131.313V48.2017C131.313 46.1705 130.106 45.4744 128.97 45.4744C127.492 45.4744 126.512 46.6392 126.512 48.3153C126.512 49.9915 127.478 51.1136 129.055 51.1136ZM127.354 47.8324C127.411 46.9837 128.011 46.2273 128.97 46.2273C129.879 46.2273 130.461 46.9091 130.461 47.8324H127.354ZM135.514 51H136.395V48.642L137.304 47.6193L139.833 51H140.898L137.844 47.0085L140.898 43.7273H139.747L136.48 47.3352H136.395V43.7273H135.514V51ZM143.529 51.1278C144.481 51.1278 144.978 50.6165 145.149 50.2614H145.191V51H146.029V47.4062C146.029 45.6733 144.708 45.4744 144.012 45.4744C143.188 45.4744 142.251 45.7585 141.825 46.7528L142.62 47.0369C142.805 46.6392 143.242 46.2131 144.041 46.2131C144.811 46.2131 145.191 46.6214 145.191 47.321V47.3494C145.191 47.7543 144.779 47.7188 143.785 47.8466C142.773 47.978 141.669 48.2017 141.669 49.4517C141.669 50.517 142.492 51.1278 143.529 51.1278ZM143.657 50.375C142.99 50.375 142.507 50.0767 142.507 49.4943C142.507 48.8551 143.089 48.6562 143.742 48.571C144.098 48.5284 145.049 48.429 145.191 48.2585V49.0256C145.191 49.7074 144.652 50.375 143.657 50.375ZM149.931 45.5455H148.766V44.2386H147.928V45.5455H147.104V46.2557H147.928V49.6648C147.928 50.6165 148.695 51.071 149.406 51.071C149.718 51.071 149.917 51.0142 150.031 50.9716L149.86 50.2188C149.789 50.233 149.676 50.2614 149.491 50.2614C149.122 50.2614 148.766 50.1477 148.766 49.4375V46.2557H149.931V45.5455ZM153.42 51.1136C154.528 51.1136 155.338 50.5597 155.593 49.7358L154.784 49.5085C154.571 50.0767 154.077 50.3608 153.42 50.3608C152.437 50.3608 151.758 49.7251 151.719 48.5568H155.679V48.2017C155.679 46.1705 154.471 45.4744 153.335 45.4744C151.858 45.4744 150.878 46.6392 150.878 48.3153C150.878 49.9915 151.843 51.1136 153.42 51.1136ZM151.719 47.8324C151.776 46.9837 152.376 46.2273 153.335 46.2273C154.244 46.2273 154.826 46.9091 154.826 47.8324H151.719ZM161.201 51H162.11L163.715 45.2045H163.772L165.377 51H166.286L168.275 43.7273H167.38L165.86 49.6506H165.789L164.241 43.7273H163.246L161.698 49.6506H161.627L160.107 43.7273H159.212L161.201 51ZM170.966 51.1136C172.444 51.1136 173.438 49.9915 173.438 48.3011C173.438 46.5966 172.444 45.4744 170.966 45.4744C169.489 45.4744 168.495 46.5966 168.495 48.3011C168.495 49.9915 169.489 51.1136 170.966 51.1136ZM170.966 50.3608C169.844 50.3608 169.333 49.3949 169.333 48.3011C169.333 47.2074 169.844 46.2273 170.966 46.2273C172.089 46.2273 172.6 47.2074 172.6 48.3011C172.6 49.3949 172.089 50.3608 170.966 50.3608ZM175.555 43.7273H174.717V51H175.555V43.7273ZM179.519 45.5455H178.298V44.9915C178.298 44.4517 178.525 44.1676 179.079 44.1676C179.32 44.1676 179.462 44.2244 179.548 44.2528L179.789 43.5284C179.661 43.4716 179.406 43.3864 178.994 43.3864C178.212 43.3864 177.46 43.8551 177.46 44.7926V45.5455H176.579V46.2557H177.46V51H178.298V46.2557H179.519V45.5455Z" fill="#262626"/>
</g>
<defs>
<clipPath id="clip0_6673_415">
<rect width="240" height="57" fill="white"/>
</clipPath>
</defs>
</svg>
