<svg width="40" height="22" viewBox="0 0 40 22" fill="none" xmlns="http://www.w3.org/2000/svg">
<g clip-path="url(#clip0_6673_418)">
<path d="M0 0H4.1708C6.86307 0 8.68145 0.126827 9.62595 0.380482C10.5793 0.634136 11.3031 1.05085 11.7974 1.63064C12.2917 2.21042 12.6007 2.85814 12.7243 3.57381C12.8478 4.28042 12.9096 5.67552 12.9096 7.75911V15.4639C12.9096 17.4387 12.8169 18.7614 12.6316 19.4317C12.455 20.0931 12.1417 20.614 11.6915 20.9944C11.2413 21.3659 10.6852 21.6286 10.0232 21.7826C9.36114 21.9275 8.36368 22 7.03078 22H0V0ZM5.57431 3.76405V18.2359C6.37758 18.2359 6.8719 18.0729 7.05727 17.7468C7.24264 17.4116 7.33532 16.5102 7.33532 15.0426V6.49537C7.33532 5.49887 7.30442 4.8602 7.24263 4.57937C7.18085 4.29854 7.03961 4.09471 6.81893 3.96788C6.59826 3.832 6.18338 3.76405 5.57431 3.76405Z" fill="#C2C2C2"/>
<path d="M32.188 0V22H27.3155V7.14762L25.3691 22H21.9133L19.861 7.48734V22H14.9884V0H22.2046C22.4164 1.32263 22.6415 2.88079 22.8798 4.67449L23.6478 10.273L24.9189 0H32.188Z" fill="#C2C2C2"/>
<path d="M40 0V22H34.4257V0H40Z" fill="#C2C2C2"/>
</g>
<defs>
<clipPath id="clip0_6673_418">
<rect width="40" height="22" fill="white"/>
</clipPath>
</defs>
</svg>
