<svg width="118" height="18" viewBox="0 0 118 18" fill="none" xmlns="http://www.w3.org/2000/svg">
<g clip-path="url(#clip0_6673_405)">
<path d="M5.66064 16.3134C12.4531 16.3134 16.1683 10.6859 16.1683 5.80576C16.1683 5.64592 16.1683 5.4868 16.1575 5.3284C16.8803 4.80561 17.5042 4.15831 18 3.4168C17.326 3.71545 16.611 3.91131 15.8789 3.99784C16.6498 3.5363 17.2268 2.81039 17.5025 1.9552C16.7776 2.38536 15.9845 2.68852 15.1574 2.8516C14.6006 2.25953 13.8642 1.86748 13.0621 1.73611C12.2601 1.60474 11.4371 1.74138 10.7205 2.12489C10.0039 2.50839 9.43367 3.11738 9.09806 3.85761C8.76245 4.59784 8.68016 5.42804 8.86392 6.21976C7.39566 6.14615 5.95929 5.76459 4.64806 5.09986C3.33683 4.43513 2.18004 3.50208 1.2528 2.36128C0.780546 3.17427 0.635904 4.1367 0.848325 5.05259C1.06075 5.96849 1.61426 6.76899 2.39616 7.29112C1.80845 7.2737 1.23356 7.11516 0.72 6.82888C0.72 6.844 0.72 6.85984 0.72 6.87568C0.720233 7.72831 1.01539 8.55462 1.5554 9.21445C2.09542 9.87428 2.84705 10.327 3.6828 10.4958C3.13911 10.6441 2.56866 10.6658 2.01528 10.5592C2.25127 11.293 2.7107 11.9347 3.32933 12.3945C3.94796 12.8544 4.69484 13.1094 5.46552 13.1238C4.15781 14.1516 2.54236 14.7095 0.87912 14.7078C0.58529 14.7073 0.291747 14.6895 0 14.6546C1.68886 15.7384 3.65394 16.3132 5.66064 16.3106" fill="#262626"/>
<g clip-path="url(#clip1_6673_405)">
<path d="M67.0053 0H50.9947C50.4453 0 50 0.445263 50 0.994737V17.0053C50 17.5547 50.4453 18 50.9947 18H59.6158V11.0526H57.2632V8.31474H59.6032V6.31579C59.6032 3.98842 61.0211 2.72211 63.0958 2.72211C63.8 2.72526 64.5042 2.76316 65.2053 2.84211V5.27053H63.7716C62.6442 5.27053 62.4263 5.80421 62.4263 6.59053V8.32737H65.1263L64.7758 11.0526H62.4263V18H67.0053C67.5547 18 68 17.5547 68 17.0053V0.994737C68 0.445263 67.5547 0 67.0053 0Z" fill="#262626"/>
</g>
<g clip-path="url(#clip2_6673_405)">
<path fill-rule="evenodd" clip-rule="evenodd" d="M109 1.62159C111.403 1.62159 111.688 1.63088 112.637 1.6741C113.514 1.71412 113.991 1.86059 114.308 1.98385C114.728 2.14711 115.028 2.34217 115.343 2.65692C115.658 2.97202 115.853 3.27176 116.016 3.69189C116.139 4.00913 116.286 4.48571 116.326 5.36314C116.369 6.31201 116.378 6.59674 116.378 9.00001C116.378 11.4033 116.369 11.6876 116.326 12.6369C116.286 13.5143 116.139 13.9909 116.016 14.3081C115.853 14.7283 115.658 15.028 115.343 15.3431C115.028 15.6582 114.728 15.8533 114.308 16.0162C113.991 16.1394 113.514 16.2859 112.637 16.3259C111.688 16.3691 111.403 16.3784 109 16.3784C106.597 16.3784 106.312 16.3691 105.363 16.3259C104.486 16.2859 104.009 16.1394 103.692 16.0162C103.272 15.8529 102.972 15.6578 102.657 15.3431C102.342 15.028 102.147 14.7283 101.984 14.3081C101.861 13.9909 101.714 13.5143 101.674 12.6369C101.631 11.688 101.622 11.4033 101.622 9.00001C101.622 6.59674 101.631 6.31237 101.674 5.36314C101.714 4.48571 101.861 4.00913 101.984 3.69189C102.147 3.27176 102.342 2.97202 102.657 2.65692C102.972 2.34182 103.272 2.14675 103.692 1.98385C104.009 1.86059 104.486 1.71412 105.363 1.6741C106.312 1.63088 106.597 1.62159 109 1.62159ZM109 0C106.556 0 106.249 0.0103604 105.289 0.054303C104.331 0.0978883 103.677 0.25008 103.105 0.47265C102.513 0.702724 102.011 1.01032 101.51 1.51084C101.01 2.011 100.702 2.51294 100.473 3.10456C100.25 3.67724 100.098 4.33138 100.054 5.28918C100.01 6.24913 100 6.55566 100 9.00001C100 11.4444 100.01 11.7509 100.054 12.7108C100.098 13.6686 100.25 14.3228 100.473 14.8955C100.703 15.4874 101.01 15.9894 101.511 16.4895C102.011 16.9901 102.513 17.2976 103.105 17.5277C103.677 17.7503 104.332 17.9025 105.29 17.9461C106.249 17.99 106.556 18.0004 109 18.0004C111.445 18.0004 111.751 17.99 112.711 17.9461C113.669 17.9025 114.323 17.7503 114.896 17.5277C115.488 17.2976 115.99 16.9901 116.49 16.4895C116.99 15.989 117.298 15.4874 117.528 14.8955C117.751 14.3231 117.903 13.6686 117.946 12.7108C117.99 11.7509 118.001 11.4444 118.001 9.00001C118.001 6.55566 117.99 6.24913 117.946 5.28918C117.903 4.33138 117.751 3.67689 117.528 3.10456C117.298 2.51259 116.99 2.01064 116.49 1.51048C115.989 1.00996 115.488 0.702366 114.896 0.472293C114.323 0.25008 113.669 0.0978883 112.711 0.054303C111.751 0.0103604 111.444 0 109 0ZM109 4.37849C106.448 4.37849 104.379 6.44772 104.379 8.99996C104.379 11.5522 106.448 13.6214 109 13.6214C111.553 13.6214 113.622 11.5522 113.622 8.99996C113.622 6.44772 111.553 4.37849 109 4.37849ZM109 11.9998C107.343 11.9998 106 10.6566 106 8.99996C106 7.343 107.344 6.00008 109 6.00008C110.657 6.00008 112 7.34336 112 8.99996C112 10.6569 110.657 11.9998 109 11.9998ZM114.884 4.19555C114.884 4.792 114.401 5.27553 113.804 5.27553C113.208 5.27553 112.724 4.792 112.724 4.19555C112.724 3.59909 113.208 3.11556 113.804 3.11556C114.401 3.11556 114.884 3.59909 114.884 4.19555Z" fill="#262626"/>
</g>
</g>
<defs>
<clipPath id="clip0_6673_405">
<rect width="118" height="18" fill="white"/>
</clipPath>
<clipPath id="clip1_6673_405">
<rect width="18" height="18" fill="white" transform="translate(50)"/>
</clipPath>
<clipPath id="clip2_6673_405">
<rect width="18" height="18" fill="white" transform="translate(100)"/>
</clipPath>
</defs>
</svg>
